PathFileType	4	(X/Y/Z)	66_2_79_p0_0-132.trc
DataRate	CameraRate	NumFrames	NumMarkers	Units	OrigDataRate	OrigDataStartFrame	OrigNumFrames
59.0	59.0	7	27	m	59.0	0	133
Frame#	Time	RHip			RKnee			RAnkle			RBigToe			RSmallToe			RHeel			LHip			LKnee			LAnkle			LBigToe			LSmallToe			LHeel			Neck			Head			Nose			RShoulder			RElbow			RWrist			RThumb			RIndex			RPinky			LShoulder			LElbow			LWrist			LThumb			LIndex			LPinky			
		X1	Y1	Z1	X2	Y2	Z2	X3	Y3	Z3	X4	Y4	Z4	X5	Y5	Z5	X6	Y6	Z6	X7	Y7	Z7	X8	Y8	Z8	X9	Y9	Z9	X10	Y10	Z10	X11	Y11	Z11	X12	Y12	Z12	X13	Y13	Z13	X14	Y14	Z14	X15	Y15	Z15	X16	Y16	Z16	X17	Y17	Z17	X18	Y18	Z18	X19	Y19	Z19	X20	Y20	Z20	X21	Y21	Z21	X22	Y22	Z22	X23	Y23	Z23	X24	Y24	Z24	X25	Y25	Z25	X26	Y26	Z26	X27	Y27	Z27	
0	0.0	0.546258402642972	0.9360795530133854	0.821392376083284	0.5420202856153179	1.023920307416104	1.2284141466336838	0.5240026122609495	1.1709398344252977	1.6196743924441017	0.4873597431752392	0.9268132030959957	1.6655972922438094	0.5592403881550069	0.934376908850751	1.6466986505220629	0.5014009869802031	1.2404518704156051	1.674465049756778	0.348239936329466	0.9178452120115409	0.817979383389712	0.33637543041541834	1.0589146196555246	1.2333694369691561	0.33299048169426376	1.1395786367676428	1.5933502320758404	0.32664196200037854	0.912764892295306	1.628901035165823	0.277442857592064	0.9871877926258954	1.6326919384484664	0.35519566165166144	1.2154755230069991	1.6487352307794254	0.454332769217865	0.7872979868168747	0.26404398952698876	0.46437303597840585	0.693446612367861	0.027798328392342683	0.4509660238469862	0.6353945406697167	0.1625604513296482	0.5982586268020216	0.7624739232715595	0.36343948987770847	0.6421363358623061	0.8265066387585499	0.609906249400856	0.48853171908474813	0.6831757006406537	0.7462859786183466	0.4083312016964468	0.709710152314924	0.790779601355616	0.3978850680903217	0.7231333245578945	0.8238077088578059	0.40493496360027487	0.7333780741564906	0.8527782318678706	0.30875893579599634	0.8378841527377324	0.33054698428814205	0.241294837254875	0.8549616999627381	0.592749666017977	0.35942214715666043	0.6971066787226918	0.7378628296522819	0.44965356973556386	0.6845732423945476	0.7826755502694149	0.4521703608486943	0.6795237205123528	0.8041310103098472	0.4091601451122706	0.7068566204871284	0.8467543452014381
1	0.01694915254237288	0.549170891349663	0.9176245260612351	0.8146554552701394	0.5457347595033919	1.026099608955293	1.2330053276895785	0.5264631214779563	1.155342003721097	1.6133620277867518	0.48846682458494867	0.8962510200138128	1.6538838325785137	0.5603258470615988	0.935737859102007	1.6470573090356502	0.5010678271653259	1.2420544192229814	1.670893898224578	0.34435673075079964	0.9164988983919071	0.8178554780332103	0.33186470724093425	1.0573255830586636	1.2330193499176265	0.332838502497377	1.139221457251334	1.593005374536753	0.3268553402910385	0.9112821414162904	1.6327573847177193	0.2771757547094975	0.9875945602318997	1.6328736050642867	0.3550229169867696	1.214613208292832	1.6438073477099417	0.45444089463311604	0.7871409138835944	0.26410169318135307	0.46415642420497283	0.6930944610096249	0.0277677138744707	0.45127623668713085	0.6372260393274265	0.16544142515555552	0.5980271935751084	0.762758793542747	0.36004575157820423	0.6420851606792382	0.8260411423136899	0.6095853923355337	0.48881516569982714	0.6823791945238604	0.7428647545938167	0.4084835761882592	0.7089794450018659	0.7946073086017009	0.4010587343871565	0.7363857241125515	0.8210922605894532	0.40425491367962324	0.761063472412752	0.852439346188064	0.3086862896649694	0.8375591981658606	0.33018191755841825	0.24125744941322055	0.8551757049025674	0.5926143039943658	0.35388012049055917	0.7235243213758542	0.7442278509631034	0.4494603899773322	0.6848709808083089	0.7828745105555919	0.4519195133112773	0.6802880999028881	0.807684556543708	0.40909436352475304	0.7076721772525992	0.8472455399424975
2	0.03389830508474576	0.5490070533304479	0.9178058922842717	0.8147543673473291	0.5456857322790749	1.0260950779880686	1.2331584475098063	0.5227001262028074	1.1740458895230879	1.6201250452439309	0.48821180819087595	0.8973244519043625	1.6542257991937341	0.5601047720818149	0.9365732022739691	1.6471618054567736	0.5016089354841736	1.2418353531425343	1.6751481736533513	0.34858035631050155	0.9183571088949448	0.8177451902603128	0.3317986542046001	1.057350093321127	1.2331263129656032	0.33315541961643086	1.1396220185876662	1.5933702312544262	0.3270162237386801	0.9105415957575322	1.6325098439350658	0.27743691315603475	0.9872234462247929	1.6327632963477463	0.35458653211924973	1.2198058443642235	1.6550991220453128	0.45440002831922205	0.7871977853549574	0.26408945824587293	0.46415854682240876	0.6932146208836657	0.027788007131503256	0.45126270010751585	0.6371469268736576	0.1654438491800435	0.5979990766014293	0.762613870095113	0.3601158103587503	0.6391644382968751	0.8421524329418661	0.6107979815889896	0.4823781958250919	0.7140242066467888	0.7564380261776402	0.4072427855693315	0.7103734290293678	0.8013759600452732	0.4003152483256987	0.7374457805265451	0.832135639637037	0.4011993097054311	0.7774327076742604	0.8627675569588149	0.30869817843340547	0.8376648133255421	0.33024533395690564	0.24087747027636475	0.8533749648445783	0.5884466670663535	0.3582270623434875	0.7254290148222013	0.7447132089800155	0.4500942666723353	0.700801651666539	0.7854276142902382	0.44778169257942146	0.6964821799365488	0.8174262055493684	0.4096210113989488	0.707958926238568	0.8472816380243097
3	0.05084745762711865	0.5487154053084392	0.9186414012320345	0.8109974059151372	0.5456868473488068	1.0260046677611971	1.2331293598328812	0.5229849352685624	1.1728217898594757	1.6244805793096317	0.48853590098166905	0.8986722718793221	1.6547584649077232	0.5604159709275913	0.9383997442049627	1.647665128485937	0.5017623390794252	1.2425415830414794	1.6755151310001493	0.34814282961265863	0.9185912958229293	0.8144225753390574	0.3317893494030365	1.0571627320631927	1.2329242524420758	0.3378934599779256	1.141464867824854	1.5939693761568554	0.32711120245657094	0.9110021120838931	1.6327862004019071	0.28207875130726534	0.9877988645575029	1.633025806382829	0.3624971404575273	1.23652239365113	1.6568331568878107	0.4544153926079723	0.7871046527195354	0.2641182958927687	0.46423457865830436	0.6931234173570584	0.027807607120858953	0.45125694995684373	0.6371076307094299	0.16543973292610367	0.5982174328644485	0.7628571952376041	0.3600113927523842	0.6346180712953107	0.8291601371104483	0.6098644248931019	0.4796374548382669	0.7280273367411175	0.7584066672042217	0.4121599657076607	0.6958547060431325	0.7996046730451498	0.40523380507974993	0.724797399476357	0.8312151786871371	0.3983345196836654	0.7931213991759678	0.8688145392745116	0.30871574178318306	0.8378131813671772	0.33031072229481495	0.24557376254472948	0.841234277074399	0.5880028487989378	0.35372280233325876	0.7252952475486701	0.7448327383309398	0.4534815121314271	0.6873707600703132	0.7837617535952756	0.4496253468674896	0.6935986880041412	0.8171707405529064	0.41261528738099307	0.7237997790260532	0.8571968096865795
4	0.06779661016949153	0.5489656638941697	0.9184062942043629	0.814717869066442	0.5456037983110142	1.026054462396873	1.233243284287572	0.5229085108054614	1.1727498876183766	1.6244153587871457	0.48977633329503634	0.9108718357151095	1.6593215322879968	0.5616437991555305	0.9357669348635479	1.6425701632333805	0.5056584693356394	1.2604073074920161	1.6865806744144687	0.34865115702600635	0.9184295302296706	0.8178164727931012	0.3317114505034567	1.0571632698566773	1.2329776145602576	0.3379384143837863	1.1408595532374992	1.5935953184325669	0.32692559670994686	0.9124114638464047	1.628638543688271	0.2822512292585175	0.9871591076958972	1.6325973051370524	0.35856756798344064	1.2191481897441172	1.650580885468584	0.4543426278256799	0.7872610590843471	0.26405347863810746	0.4642337538769797	0.6931334962548547	0.027806215217129775	0.4509139335321041	0.6354050457733924	0.16253431044984057	0.5980632890383758	0.7628238226872588	0.35997167704024274	0.63416196192348	0.8286525863802341	0.6097368761318441	0.4832652914852008	0.7166122447128647	0.7606318434894386	0.41950191045294444	0.7076581696729396	0.8037480449958863	0.4090288448519987	0.7374074470428242	0.8370557135689144	0.39778359928691565	0.794484869771314	0.8691439310777891	0.3087715511683539	0.8379304348438432	0.330399694224523	0.24094761931784878	0.8563313024127156	0.5887717393902978	0.35780710960090795	0.7285889771298871	0.7496404810761841	0.4538964534842328	0.6860676272775007	0.7833525712591275	0.449777079296482	0.6916698459440931	0.8166612587396925	0.41261479958953556	0.7239256367140324	0.8571228580107745
5	0.0847457627118644	0.5487854204244849	0.9182765588247948	0.8147836905285245	0.5456310874791863	1.026067677999205	1.233270419588206	0.5229524174154551	1.17219537179032	1.6242775899248234	0.48824455971917735	0.9080226210456392	1.6536026470297678	0.5611769707488942	0.935603498386639	1.6423191137742694	0.506590318397749	1.2585400519064491	1.6808677799470573	0.3440840688739559	0.9174390771914156	0.8179294825496016	0.33174411984018853	1.0571288650764732	1.2329425041455837	0.3378324283183228	1.1411907519455982	1.5938783367677969	0.32671590161685105	0.9124046271989996	1.6286250370574298	0.2821631571796175	0.9872211314011444	1.6326737019674709	0.35837739508981115	1.2185650730134099	1.6503810428022727	0.4543448857006577	0.7870383120952268	0.26412884350604077	0.4642049980405107	0.6932120449493369	0.027819522894089475	0.45100599938655533	0.6352987622395552	0.16260642529724978	0.5982091787576058	0.7625001344751208	0.36002306350917823	0.6341273531855051	0.8289600279678719	0.60982163446061	0.48660854696474626	0.7293216962692296	0.7621059864256593	0.4144021679358376	0.6955404246430652	0.802555741614863	0.4082892328690522	0.7122629071581918	0.8364410168114419	0.40597707397222704	0.7661899310805481	0.868824199929405	0.30903627625056607	0.8401329222065093	0.33386091367140175	0.24106109577064236	0.8566507658754491	0.5887935138918684	0.358506993265855	0.7320147492763124	0.7541821657047129	0.4582305167843676	0.6728860176382077	0.7817090133345423	0.4507156365851772	0.6922264846522242	0.82077435706938	0.41013450669700935	0.7394947318614375	0.8667906036866516
6	0.1016949152542373	0.5484351417906181	0.9179739539494988	0.8146870063255041	0.5448070847538916	1.0275966680401702	1.2378683775521897	0.5229172435876424	1.1724175950358522	1.6242846618556366	0.4928665651505975	0.9092429483022497	1.6543126027782384	0.5622861475147661	0.9362773305393206	1.6428447061336326	0.5015825984302406	1.2416297019567606	1.6750268906316437	0.3433807593295879	0.9170120188696251	0.8181889017081455	0.33093064027032665	1.0540245067095486	1.2276476133853902	0.33759120798577874	1.1409740611505423	1.5937423417301073	0.32672622084297087	0.9126431821769472	1.6287638526351225	0.2820658816895378	0.9873740838211753	1.6327747504662653	0.3581372176825398	1.2198880547779891	1.651067891806744	0.4543123048234444	0.7868005470821726	0.26422424733917427	0.4642557910051135	0.6933646216569994	0.027818961434666323	0.45140856340740343	0.6369178650791807	0.16560298710746132	0.598281522911554	0.7625726298070216	0.35994401833686407	0.6342901695078914	0.8293674718984128	0.609993471730383	0.4897689564680752	0.745951976939528	0.770821802838201	0.42141322052349117	0.7084933166262731	0.8163633197033576	0.4072844407751444	0.7319630361300413	0.8506357036975889	0.4055930400374122	0.7708185932114676	0.8771425801675404	0.30910451011659473	0.8403581621404714	0.3340231752516003	0.2504169717770315	0.8465221095441109	0.5922340068794938	0.3587657051097103	0.7293327048623739	0.7544142810935551	0.45485133572535763	0.6864751584985161	0.7834848064644202	0.45065032159776697	0.6904631061894044	0.8269806505613152	0.40967074974506457	0.7369183654894448	0.863450738844363
